<?xml version="1.0" encoding="UTF-8" standalone="no"?>
<!-- Created with Inkscape (http://www.inkscape.org/) -->
<svg xmlns:svg="http://www.w3.org/2000/svg" xmlns="http://www.w3.org/2000/svg" xmlns:xlink="http://www.w3.org/1999/xlink" version="1.1" width="945.35382" height="1020.197" id="svg3760">
  <defs id="defs3762">
    <linearGradient x1="983.04712" y1="424.02283" x2="1601.252" y2="887.67645" id="linearGradient3609" xlink:href="#linearGradient3466" gradientUnits="userSpaceOnUse"/>
    <linearGradient id="linearGradient3466">
      <stop id="stop3468" style="stop-color:#cbcbcb;stop-opacity:1" offset="0"/>
      <stop id="stop3470" style="stop-color:#767676;stop-opacity:1" offset="1"/>
    </linearGradient>
  </defs>
  <g transform="translate(-44.465976,29.164914)" id="layer1">
    <g transform="translate(-941.20964,84.18426)" id="g3533">
      <g id="g3535">
        <path d="m 1176.3125,95.1875 c -226.36266,74.4487 -357.56796,297.57127 -330,517.15625 33.04472,263.20856 263.5842,451.23585 514.625,419.71875 193.12,-24.2454 342.3866,-171.37693 385.9375,-357.8125 -36.9166,15.79693 -76.4869,26.71393 -118.0938,31.9375 -251.0408,31.51706 -481.6115,-156.51017 -514.6562,-419.71875 -7.6242,-60.72819 8.5876,-132.83162 62.1875,-191.28125 z" transform="translate(179.15445,-171.98827)" id="path3537" style="fill:#faffd0;fill-opacity:1;stroke:#f1f9aa;stroke-width:10;stroke-miterlimit:4;stroke-opacity:0.91470588;stroke-dasharray:none;stroke-dashoffset:0"/>
        <path d="m 1238.7997,-16.09232 c -147.4858,102.45203 -226.3432,279.67447 -204.375,454.65625 33.0447,263.20856 263.5842,451.23585 514.625,419.71875 99.6549,-12.5112 187.6378,-57.74756 255.4375,-124.21875 -56.6091,38.88009 -122.5198,65.02176 -194.5312,74.0625 -251.0408,31.51715 -481.5803,-156.51016 -514.6251,-419.71875 -18.7147,-149.06739 35.7445,-299.79179 143.4688,-404.5 z" id="path3601" style="opacity:0.1935484;fill:#edbe1e;fill-opacity:1;stroke:none"/>
        <path d="m 956.6875,360.8125 c -19.77865,0 12.53128,66.48633 12.53125,93.1875 0,26.70118 -17.96615,57.31249 1.8125,57.3125 19.77865,0 35.81245,-21.67382 35.81255,-48.375 0,-26.70118 -30.37767,-102.12499 -50.1563,-102.125 z m 1.78125,232.90625 c -28.67904,0 -51.93752,28.89843 -51.9375,64.5 0,35.60157 23.25846,64.49999 51.9375,64.5 17.70681,0 -23.97467,-32.50552 -14.59375,-49.3125 5.81301,-10.41465 66.5625,-1.5668 66.5625,-15.1875 0,-14.72142 -45.17899,-12.17229 -51.875,-23.03125 -9.4973,-15.40183 16.72637,-41.46875 -0.0937,-41.46875 z M 1244.8125,739.6875 c -36.6638,0.27111 -66,21.94277 -66,43.28125 0,23.54592 37.8475,51.18706 77.5937,42.65625 107.8879,-23.15615 -15.9687,-27.64156 -15.9687,-51.1875 0,-23.54593 131.8447,-20.71895 15.9687,-34.125 -3.9249,-0.45409 -7.8009,-0.65305 -11.5937,-0.625 z m 380.5937,14.46875 c -2.5845,-0.25106 -5.508,29.46874 -20.1874,29.46875 -24.7234,0 -84.1831,16.04489 -19.6876,44.78125 18.0666,8.04963 -5.0358,26.87502 19.6876,26.875 24.7232,0 28.6562,-19.62762 28.6562,-39.40625 -5.0947,-47.33709 -6.7004,-61.54697 -8.4688,-61.71875 z m -573,21.40625 c -16.1593,0.59233 -49.5664,26.04262 -13.1874,66.15625 29.0462,20.58589 66.0732,18.27344 82.6562,-5.125 10.2386,-14.44654 -8.7174,-72.69717 -77.8125,-33.0625 21.5218,-19.74235 18.0393,-28.32415 8.3437,-27.96875 z m 194.5,111.96875 c -22.7454,0 -84.1875,20.1263 -84.1874,53.75 0,33.62371 66.8169,5.37501 89.5624,5.375 22.7455,0 66.2813,35.40495 66.2813,1.78125 0,-33.62371 -48.9108,-60.90623 -71.6563,-60.90625 z" transform="translate(179.15445,-171.98827)" id="path3541" style="fill:#3b3b3b;fill-opacity:1;fill-rule:evenodd;stroke:#000000;stroke-width:1px;stroke-linecap:butt;stroke-linejoin:miter;stroke-opacity:1"/>
        <path d="m 966.6875,370.8125 c -19.77859,0 12.53125,66.48633 12.53125,93.1875 0,17.22363 -7.47046,36.06923 -7.46875,47.28125 19.44566,-0.51936 35.0937,-21.96795 35.0938,-48.34375 -10e-5,-20.06898 -17.17057,-67.65753 -34.0938,-90.0625 -2.09933,-1.32733 -4.12766,-2.0625 -6.0625,-2.0625 z m -3.75,233.28125 c -26.08031,3.43112 -46.40625,30.84216 -46.40625,64.125 0,17.45637 5.60672,33.28948 14.6875,44.90625 7.9215,6.07692 17.25821,9.59375 27.25,9.59375 17.70681,0 -23.97467,-32.50552 -14.59375,-49.3125 5.73124,-10.26815 64.8688,-1.81096 66.5312,-14.625 -13.71433,-4.96246 -37.16433,-6.00528 -41.8437,-13.59375 -0.92467,-1.49956 -1.49236,-3.11339 -1.8125,-4.78125 -3.84823,-1.35827 -6.82406,-3.00765 -8.1875,-5.21875 -5.66155,-9.18138 1.33427,-22.11372 4.375,-31.09375 z m 291.875,145.59375 c -36.6638,0.27111 -66,21.94277 -66,43.28125 0,6.2091 2.6455,12.70975 7.25,18.75 14.7595,11.59209 37.2222,18.86887 60.3437,13.90625 28.2532,-6.06402 40.6148,-10.85044 43.4688,-15.03125 -16.7014,-6.86846 -47.375,-13.68555 -49.3438,-25 -6.0231,-3.24072 -10.0937,-6.88734 -10.0937,-11.15625 0,-11.77296 32.9608,-16.96275 51.4375,-20.875 -6.691,-0.97427 -15.0447,-2.04402 -25.4688,-3.25 -3.9248,-0.45409 -7.8009,-0.65305 -11.5937,-0.625 z m 375,29.1875 c -2.8894,7.36844 -7.2841,14.75 -14.5937,14.75 -18.3542,0 -55.848,8.84275 -47.5626,25.15625 4.4174,3.02846 10.2745,6.23854 17.875,9.625 5.1604,2.29924 6.9834,5.47603 7.5,8.84375 0.8157,0.37835 1.6408,0.77339 2.5,1.15625 9.2212,4.10849 7.7393,11.02553 7.3438,16.8125 0.7297,0.0419 1.5082,0.0625 2.3438,0.0625 24.7232,0 28.6562,-19.62762 28.6562,-39.40625 -1.715,-15.93469 -2.9989,-27.84474 -4.0625,-37 z m -571.1875,7.21875 c -15.7364,3.58909 -39.6106,25.17994 -15.4688,58.21875 28.3783,17.72494 62.874,14.63807 78.7188,-7.71875 4.259,-6.00934 3.4767,-19.59242 -3.875,-30.5625 -12.7668,-8.43046 -33.4832,-9.96932 -63.9375,7.5 10.5054,-9.63679 15.0371,-16.61054 15.8125,-21.1875 -7.6887,2.11248 -16.2641,5.71027 -25.8125,11.1875 7.9586,-7.30056 12.4922,-13.07683 14.5625,-17.4375 z m 198.2812,111.4375 c -22.7452,0 -84.1876,20.1263 -84.1874,53.75 -1e-4,1.8388 0.2122,3.4853 0.5937,4.96875 19.779,6.40515 61.8541,-9.59374 78.9687,-9.59375 22.7455,0 66.2813,35.40495 66.2813,1.78125 0,-10.38218 -4.6649,-20.16224 -11.7813,-28.71875 -0.011,-0.009 -0.02,-0.0218 -0.031,-0.0312 -15.9901,-13.53762 -37.0494,-22.15624 -49.8438,-22.15625 z" transform="translate(179.15445,-171.98827)" id="path3543" style="fill:url(#linearGradient3609);fill-opacity:1;fill-rule:evenodd;stroke:#000000;stroke-width:1px;stroke-linecap:butt;stroke-linejoin:miter;stroke-opacity:1"/>
      </g>
      <g id="g3547">
        <path d="m 1259,95.21875 c -0.9111,0.0024 -1.8717,0.233055 -2.6875,0.84375 -0.1086,0.08142 -0.209,0.15495 -0.3125,0.25 -4.631,4.61609 -2.524,9.00198 -0.75,13.0625 -1.8302,0.43579 -3.6698,1.2478 -5.4062,2.46875 -3.7433,2.63204 -5.9107,6.42796 -5.9688,9.78125 -3.2669,-1.01072 -7.635,-0.22361 -11.375,2.40625 -4.2137,2.96275 -6.3836,7.37249 -5.8438,11 -0.095,0.0831 -0.1899,0.16488 -0.2812,0.25 -3.0882,-1.91122 -6.2188,-3.7687 -9.5938,-5.28125 -9.385,-0.94914 -8.9869,10.64095 -6.6874,14.90625 1.415,6.67601 3.9584,12.89665 4.75,19.8125 -3.7935,8.01135 -20.6157,19.15782 -25.75,26.53125 -6.321,5.77614 -16.0486,14.70814 -10.2188,21.0625 5.8353,7.56843 17.1551,-0.53655 22.5312,-7.90625 7.7125,-7.99783 22.8086,-22.44321 31.25,-29.875 -13.9338,26.08878 -13.2871,57.57329 4.5,81.78125 0.4031,0.54846 0.803,1.0905 1.2188,1.625 0.023,0.0295 0.04,0.0643 0.062,0.0937 0.3936,0.50444 0.8142,1.00806 1.2187,1.5 0.2071,0.2512 0.4152,0.5021 0.625,0.75 0.265,0.31344 0.5123,0.62929 0.7813,0.9375 0.092,0.10511 0.1888,0.208 0.2813,0.3125 0.3072,0.34749 0.6247,0.6905 0.9374,1.03125 0.099,0.10779 0.2129,0.20539 0.3126,0.3125 0.3547,0.38187 0.7008,0.78298 1.0624,1.15625 0.1235,0.12701 0.2509,0.249 0.375,0.375 0.3422,0.34797 0.6835,0.6909 1.0313,1.03125 0.153,0.1491 0.3147,0.28987 0.4687,0.4375 0.3242,0.31143 0.6394,0.63259 0.9688,0.9375 0.1835,0.16956 0.3778,0.33247 0.5625,0.5 0.3026,0.27466 0.5997,0.54327 0.9063,0.8125 0.2174,0.19036 0.4365,0.37487 0.6562,0.5625 0.7841,0.67278 1.5974,1.33104 2.4062,1.96875 0.2815,0.22126 0.5592,0.43923 0.8438,0.65625 3.2898,2.51917 6.7711,4.74394 10.4062,6.6875 -12.0704,8.41356 -17.7096,23.74241 -11.5624,33.09375 4.0957,8.30595 14.6635,14.54018 26.9062,9.84375 -4.5973,7.00089 -7.6981,14.87632 -4.9688,21.34375 3.1097,10.80271 13.2883,20.07636 27.0313,19.375 0.9817,-0.0501 1.9837,-0.15756 3,-0.3125 1.0166,-0.15494 2.0449,-0.35907 3.0937,-0.625 14.0188,-3.70195 26.4174,-14.34508 34.375,-25.78125 3.997,-4.08849 8.3188,-7.93314 12.7813,-11.625 7.5598,14.24278 14.5566,31.08363 26.0313,48.28125 -29.3145,14.26466 -48.1568,29.81603 -65.125,49.125 -0.1067,0.12139 -0.206,0.25332 -0.3126,0.375 -1.1845,1.35319 -2.3617,2.73398 -3.5312,4.125 -0.1001,0.119 -0.2122,0.22447 -0.3125,0.34375 -0.095,0.11366 -0.1861,0.22983 -0.2813,0.34375 -0.1271,0.15215 -0.248,0.31613 -0.375,0.46875 -0.7367,0.88523 -1.485,1.75519 -2.2187,2.65625 -1.3299,1.63348 -2.6429,3.31257 -3.9687,5 -0.3957,0.50367 -0.7917,0.99137 -1.1876,1.5 -0.055,0.0713 -0.101,0.14733 -0.1562,0.21875 -1.257,1.61716 -2.5176,3.26881 -3.7812,4.9375 -0.1216,0.16054 -0.2533,0.30773 -0.375,0.46875 -0.7068,0.93536 -1.4141,1.89171 -2.125,2.84375 -1.1059,1.48087 -2.2241,2.97754 -3.3438,4.5 -0.8524,1.15872 -1.7307,2.34774 -2.5938,3.53125 -0.1187,0.16298 -0.2243,0.33654 -0.3437,0.5 -2.7998,3.84357 -5.6303,7.75655 -8.5937,11.875 2.5573,-6.78177 -6.3427,1.52548 -7.9688,3.125 -3.7379,3.39769 -7.2842,6.94957 -10.875,10.5 -7.7919,6.1497 -16.0896,15.40205 -13.8125,26.125 2.4942,9.97408 17.805,18.49911 33.3125,4.15625 -13.5859,13.38778 -11.434,26.55592 13.8125,30.5625 10.1619,-2.07996 18.0258,-10.01676 23.4687,-18.4375 5.0154,-4.95837 8.5146,-11.26012 12.1876,-17.3125 -0.1329,0.12996 -0.2923,0.25593 -0.4376,0.375 22.2929,-35.40564 43.0898,-73.11324 80.375,-72.5625 7.8163,14.78714 19.1885,29.1275 32.6876,42.40625 0.6075,0.59767 1.1965,1.21923 1.8124,1.8125 1.0507,1.01163 2.1131,2.00151 3.1876,3 0.2335,0.21701 0.4528,0.43988 0.6874,0.65625 0.7535,0.69491 1.5173,1.37428 2.2813,2.0625 1.9079,1.71807 3.8409,3.41963 5.8125,5.09375 0.1013,0.0861 0.2111,0.164 0.3125,0.25 0.2479,0.20986 0.5016,0.41587 0.75,0.625 0.7907,0.66475 1.5752,1.34263 2.375,2 0.2466,0.20258 0.503,0.39188 0.75,0.59375 1.1352,0.92649 2.2849,1.83884 3.4375,2.75 0.5114,0.40436 1.0167,0.81749 1.5312,1.21875 0.2287,0.17829 0.4584,0.35358 0.6876,0.53125 0.9722,0.75343 1.9546,1.50789 2.9374,2.25 1.1989,0.90529 2.4117,1.79953 3.625,2.6875 0.6984,0.51087 1.3909,1.02627 2.0938,1.53125 0.9523,0.68444 1.9145,1.35785 2.875,2.03125 0.1228,0.0861 0.2518,0.16404 0.375,0.25 2.8392,1.98516 5.698,3.92859 8.5938,5.8125 0.4994,0.32488 0.999,0.647 1.5,0.96875 0.667,0.42856 1.3306,0.85831 2,1.28125 2.0276,1.28091 4.0485,2.52216 6.0937,3.75 0.1233,0.074 0.252,0.14494 0.375,0.21875 0.156,0.0933 0.3127,0.18823 0.4687,0.28125 1.1852,0.70658 2.3731,1.40568 3.5626,2.09375 0.092,0.0533 0.1888,0.10305 0.2812,0.15625 0.8964,0.51732 1.7894,1.02467 2.6875,1.53125 0.8888,0.50099 1.7659,1.00967 2.6563,1.5 0.2819,0.15526 0.562,0.31455 0.8437,0.46875 1.0539,0.57608 2.1322,1.12671 3.1875,1.6875 34.1794,18.16687 68.817,28.18281 91.9688,24.78125 -8.6571,11.68295 -8.2509,53.14801 -6.1876,96.34375 0.016,0.33285 0.046,0.66693 0.063,1 0.29,6.00193 0.5739,12.01369 0.9062,18 0.056,1.01743 0.1309,2.01679 0.1875,3.03125 0.6236,11.10491 1.263,22.02958 1.8125,32.25 0.095,1.76479 0.1933,3.65359 0.2812,5.375 0.109,2.13347 0.2163,4.31703 0.3126,6.375 0.1768,3.78058 0.347,7.45691 0.4687,10.9375 0.6262,-0.14738 1.2574,-0.28731 1.9063,-0.40625 -5.092,2.4533 -8.0938,5.21859 -8.0938,8 0,3.22287 4.0422,5.88922 10.6875,7.71875 -7.4694,2.91522 -12.0136,6.28153 -11.875,9.46875 0.1183,2.71005 3.6332,4.85699 9.375,6.28125 -4.3755,2.10097 -6.8777,4.30146 -6.75,6.34375 0.132,2.10552 3.0104,3.77289 7.8437,4.875 -0.5538,-0.005 -1.1005,-0.0298 -1.6562,-0.0312 1.3568,17.13711 14.5599,44.53752 31.9062,46.3125 24.5543,1.15971 42.2534,-30.0547 41.5938,-53.4375 6.3183,-2.50368 10.0625,-5.25745 9.9062,-7.75 -0.1448,-2.31147 -3.6234,-4.06505 -9.3437,-5.15625 3.6412,-2.12696 5.7194,-4.34369 5.625,-6.5 -0.1037,-2.38043 -2.8003,-4.34496 -7.3437,-5.75 5.4382,-2.5169 8.6874,-5.39722 8.6874,-8.28125 10e-5,-3.41026 -4.5246,-6.17736 -11.875,-8 1.2539,-1.04597 2.3936,-2.26357 3.375,-3.65625 -1.9469,-55.46855 -3.8964,-110.93774 -5.8437,-166.40625 1.6967,-0.48816 3.3709,-1.01895 5.0313,-1.59375 6.7365,-2.33662 13.2,-5.37683 19.2812,-9.03125 -203.0782,-28.0354 -371.9307,-196.72883 -399.8438,-419.0625 -0.1771,-1.41082 -0.3487,-2.8272 -0.5,-4.25 -1.4624,0.83849 -3.2245,1.85795 -4.4687,2.5625 -8.7521,-5.899 -18.1005,-11.12528 -26.875,-17 -0.6646,-0.338903 -1.5264,-0.564865 -2.4375,-0.5625 z m 71.4688,407.90625 c 0.6754,-0.66062 1.1859,-1.4503 1.4687,-2.40625 -0.499,0.79131 -0.9801,1.6011 -1.4687,2.40625 z m 477.4687,31.0625 c -10.7082,1.34436 -21.38,2.28709 -32,2.84375 -0.5899,2.08143 -0.9375,4.29755 -0.9375,6.625 0,1.72161 0.1714,3.39889 0.5,5 0.034,4.41072 1.1856,6.8151 2.9688,7.53125 0.01,0.012 0.023,0.0192 0.031,0.0312 3.1847,5.06868 9.5792,6.36776 13.9375,27.6875 0.2326,-18.05214 11.17,-22.90083 14.3125,-28.34375 1.9498,-3.37778 3.0938,-7.48789 3.0938,-11.90625 0,-3.41563 -0.6927,-6.62261 -1.9063,-9.46875 z" id="path3549" style="opacity:0.50806448;fill:#000000;fill-opacity:1;stroke:#000000;stroke-width:3;stroke-miterlimit:4;stroke-opacity:0.91470588;stroke-dasharray:none;stroke-dashoffset:0"/>
        <g transform="translate(1221.8333,-57.329423)" id="g3551">
          <path d="m 429.5,748.6875 c -2.88546,0.0185 -5.84689,0.10937 -8.90625,0.3125 -24.47483,1.62504 -44.34376,8.76986 -44.34375,15.9375 0,3.22291 4.04192,5.88922 10.6875,7.71875 -7.46948,2.91526 -12.01396,6.28153 -11.875,9.46875 0.11815,2.71009 3.63283,4.85699 9.375,6.28125 -4.37556,2.10101 -6.87799,4.30146 -6.75,6.34375 0.35587,5.67868 20.70326,8.04482 45.4375,5.28125 24.73425,-2.76358 44.51211,-9.63385 44.15625,-15.3125 -0.14485,-2.31143 -3.62381,-4.06505 -9.34375,-5.15625 3.64107,-2.12692 5.71901,-4.34369 5.625,-6.5 -0.10378,-2.38039 -2.80034,-4.34496 -7.34375,-5.75 5.43828,-2.51686 8.6875,-5.39722 8.6875,-8.28125 0,-6.27168 -15.208,-10.47338 -35.40625,-10.34375 z" id="path3553" style="fill:#ffffff;fill-opacity:1;stroke:#000000;stroke-width:3;stroke-miterlimit:4;stroke-opacity:0.91470588;stroke-dasharray:none;stroke-dashoffset:0"/>
          <path d="m 164.96875,282.03125 c -10.78164,19.58197 -69.210099,39.78213 -39.625,62.8125 12.15716,16.46612 19.44948,39.69387 35.375,63.5625 -48.59474,23.64666 -68.395678,50.80041 -98.625,92.8125 18.967682,13.63129 24.453117,47.32352 49.03125,40.125 22.54121,-35.70168 43.38262,-74.14986 81.03125,-73.59375 35.07705,66.36055 141.51589,123.76288 192.4375,116.28125 -14.13328,19.07339 -4.11458,117.45833 -2.15625,173.3125 22.77368,-5.35932 61.00936,8.41987 73.96875,-9.96875 -1.94696,-55.46851 -3.89679,-110.93774 -5.84375,-166.40625 54.35783,-15.63903 91.75908,-77.46791 74.84375,-132.59375 -18.49383,-74.73626 -99.9842,-129.53203 -160.5,-144.15625 -60.5158,-14.62422 -175.08454,26.29309 -138.37301,31.81498 -23.91834,-1.67089 -41.68923,-41.98302 -61.56449,-54.00248 z" id="path3555" style="fill:#ffffff;fill-opacity:1;stroke:#000000;stroke-width:4;stroke-miterlimit:4;stroke-opacity:0.91470588;stroke-dasharray:none;stroke-dashoffset:0"/>
          <g transform="matrix(0.6048479,-0.4252908,0.3283014,0.4468111,347.87896,-81.359777)" id="g3557">
            <path d="m -509.28125,-5.34375 c -0.18376,0.00733 -0.37329,0.029859 -0.5625,0.0625 -10.97325,2.5179576 -10.0988,15.549107 -12.4375,24.21875 -5.25615,8.871994 -5.98984,19.724376 -11.5,28.375 -9.35652,3.1965 -24.6277,6.001156 -32.34375,-2.84375 -4.83591,-13.335638 -7.84406,-27.648351 -13.46875,-40.71875 -9.47049,-11.1385817 -18.30911,6.350991 -19.21875,15.03125 -3.80487,11.319879 -6.01087,23.160639 -10.6875,34.1875 -10.55235,7.885983 -37.82357,6.830502 -49.32641,12.384032 -11.51718,1.965038 -29.2651,5.105508 -28,20.53125 0.29897,17.223358 19.11134,16.984408 30.875,11.6875 14.81338,-3.79988 42.85909,-9.425974 58.01391,-11.634032 -36.086,24.04092 -60.625,71.16435 -60.625,125.34375 0,78.56028 51.58086,142.31251 115.15625,142.3125 63.57537,0 115.18749,-63.75222 115.1875,-142.3125 0,-55.11529 -25.38885,-102.95422 -62.5,-126.59375 11.30976,1.455984 29.05003,3.431483 40.19446,5.96875 9.90432,2.011952 19.56545,5.246626 29.34375,7.5625 14.25489,0.226988 20.52626,-22.069751 8.15625,-29.25 C -424.15847,62.293832 -437.5541,61.738341 -449.74304,58 c -10.44522,-2.242197 -27.47658,-4.051855 -38.06946,-5.4375 -4.81588,-17.78638 -10.82776,-35.226226 -15.6875,-53 -0.90601,-2.3793702 -3.02484,-5.016168 -5.78125,-4.90625 z" id="path3559" style="fill:#ffffff;fill-opacity:1;stroke:#000000;stroke-width:6.24789286;stroke-miterlimit:4;stroke-opacity:0.91470588;stroke-dasharray:none;stroke-dashoffset:0"/>
            <path d="m -557.64848,11.237635 c -6.96642,0 -12.90181,4.242944 -15.21875,10.15625 -5.77449,0.802535 -10.21875,5.579035 -10.21875,11.34375 0,0.320816 0.0355,0.623329 0.0625,0.9375 -2.4242,2.727474 -3.90624,6.230032 -3.90625,10.09375 0,8.620414 7.30166,15.625001 16.28125,15.625 3.01324,0 5.82922,-0.783626 8.25,-2.15625 2.35795,5.83478 8.24858,9.96875 15.15625,9.96875 5.24113,0 9.89928,-2.395077 12.875,-6.09375 1.68213,0.565394 3.46138,0.90625 5.34375,0.90625 8.9796,0 16.28123,-7.004587 16.28125,-15.625 0,-3.700177 -1.35086,-7.104387 -3.59375,-9.78125 2.23467,-2.674357 3.59374,-6.057349 3.59375,-9.75 0,-8.620414 -7.30167,-15.624997 -16.28125,-15.625 -6.18878,0 -11.56293,3.330946 -14.3125,8.21875 -2.75165,-4.881196 -8.12882,-8.218748 -14.3125,-8.21875 z" id="path3561" style="fill:#ffffff;fill-opacity:1;stroke:#000000;stroke-width:3;stroke-miterlimit:4;stroke-opacity:0.91470588;stroke-dasharray:none;stroke-dashoffset:0"/>
            <g id="g3563">
              <path d="m -645.98535,269.46646 c -20.84648,-1.63554 -40.84034,15.64157 -41.66308,36.68035 -2.18818,16.50663 4.3299,36.71118 21.43714,42.48346 -10.61917,5.56085 -20.29759,13.93957 -22.50251,26.3155 -6.0148,21.90618 -0.33226,50.47066 21.3689,61.60367 18.24714,9.08301 40.28603,6.2355 58.121,-2.38363 19.46779,-4.81121 39.7878,-5.23712 59.77027,-5.91058 26.34298,-0.26198 52.65529,2.20401 78.66043,6.29616 21.63418,10.48544 51.7949,11.88522 69.04545,-7.38841 14.01307,-17.60742 15.33772,-44.11673 4.69805,-63.64263 -2.43543,-7.4811 -16.73942,-12.96827 -17.46388,-14.94543 18.54881,-6.58505 24.10105,-29.26895 20.5292,-46.8235 -3.07083,-20.00018 -23.22793,-34.39512 -43.09432,-32.37618 -15.50056,0.63127 -29.95329,7.70882 -45.55043,7.82744 -46.40765,4.70148 -93.59283,3.85712 -139.58929,-3.93572 -7.68608,-2.38474 -15.70665,-3.79872 -23.76693,-3.8005 z" id="path3565" style="font-size:40px;font-style:normal;font-weight:normal;fill:#000000;fill-opacity:1;stroke:#000000;stroke-width:4.31242275px;stroke-linecap:butt;stroke-linejoin:miter;stroke-opacity:1;font-family:Bitstream Vera Sans"/>
              <path d="m -645.98535,269.46646 c -20.84648,-1.63554 -40.84034,15.64157 -41.66308,36.68035 -2.18818,16.50663 4.3299,36.71118 21.43714,42.48346 -10.61917,5.56085 -20.29759,13.93957 -22.50251,26.3155 -6.0148,21.90618 -0.33226,50.47066 21.3689,61.60367 18.24714,9.08301 40.28603,6.2355 58.121,-2.38363 19.46779,-4.81121 39.7878,-5.23712 59.77027,-5.91058 26.34298,-0.26198 52.65529,2.20401 78.66043,6.29616 21.63418,10.48544 51.7949,11.88522 69.04545,-7.38841 14.01307,-17.60742 15.33772,-44.11673 4.69805,-63.64263 -2.43543,-7.4811 -16.73942,-12.96827 -17.46388,-14.94543 18.54881,-6.58505 24.10105,-29.26895 20.5292,-46.8235 -3.07083,-20.00018 -23.22793,-34.39512 -43.09432,-32.37618 -15.50056,0.63127 -29.95329,7.70882 -45.55043,7.82744 -46.40765,4.70148 -93.59283,3.85712 -139.58929,-3.93572 -7.68608,-2.38474 -15.70665,-3.79872 -23.76693,-3.8005 z m 78.57884,131.54953 c 0,9.69797 -14.28407,17.56878 -31.88408,17.56878 -17.60001,0 -31.88408,-7.87081 -31.88408,-17.56878 0,-9.69796 14.28407,-17.56878 31.88408,-17.56878 17.60001,0 31.88408,7.87082 31.88408,17.56878 z m 127.53635,-2.60278 c 0,11.1347 -15.15861,20.17156 -33.83617,20.17156 -18.67756,0 -33.83617,-9.03686 -33.83617,-20.17156 0,-11.1347 15.15861,-20.17156 33.83617,-20.17156 18.67756,0 33.83617,9.03686 33.83617,20.17156 z" id="path3567" style="font-size:40px;font-style:normal;font-weight:normal;fill:#ffffff;fill-opacity:1;stroke:#000000;stroke-width:4.31242275px;stroke-linecap:butt;stroke-linejoin:miter;stroke-opacity:1;font-family:Bitstream Vera Sans"/>
            </g>
            <path d="m -549.41943,200.17162 c -125.93654,-4.44931 -29.31413,-92.97029 2.20242,-16.65281 0.85129,-60.06635 68.2048,-58.48734 63.17191,1.19189" id="path3569" style="fill:#ffffff;fill-opacity:1;stroke:#000000;stroke-width:7.80986595;stroke-miterlimit:4;stroke-opacity:0.91470588;stroke-dasharray:none;stroke-dashoffset:0"/>
            <path d="m -638.5,204.09375 c -7.14377,0 -13.9131,2.05138 -20.03125,5.6875 -0.004,0.50049 -0.0312,0.99829 -0.0312,1.5 0,20.68955 3.62857,40.35229 10.0625,58.09375 0.83661,0.005 1.65942,0.0278 2.5,0.0937 8.06028,0.002 16.09519,1.42775 23.78125,3.8125 0.47859,0.0811 0.95865,0.13917 1.4375,0.21875 l 30.8125,2.34375 c 0.22509,-2.57592 0.3125,-4.78205 0.3125,-7.375 0,-35.53025 -21.87883,-64.375 -48.84375,-64.375 z" id="path3571" style="fill:#000000;fill-opacity:1;stroke:#000000;stroke-width:3;stroke-miterlimit:4;stroke-opacity:0.91470588;stroke-dasharray:none;stroke-dashoffset:0"/>
            <path d="m -437.59375,155.0625 c -25.80256,13.62923 -43.152,38.88038 -41.90625,65.03125 1.12303,23.57491 17.07079,41.86384 39.78125,49.4375 0.49129,-0.0422 0.97551,-0.0635 1.46875,-0.0937 6.44631,-17.75461 10.03125,-37.44752 10.03125,-58.15625 0,-19.97071 -3.35839,-38.9638 -9.375,-56.21875 z" id="path3573" style="fill:#000000;fill-opacity:1;stroke:#000000;stroke-width:3.95225215;stroke-miterlimit:4;stroke-opacity:0.91470588;stroke-dasharray:none;stroke-dashoffset:0"/>
          </g>
          <path d="m 43.25,514.84375 c -7.791948,6.14971 -16.081696,15.37262 -13.804207,26.09557 2.494146,9.97407 17.7924,18.49907 33.299524,4.15621 -13.585805,13.38778 -11.429596,26.58539 13.817183,30.59197 10.161772,-2.07992 18.025902,-10.01676 23.46875,-18.4375 5.68258,-5.61794 9.40935,-13.00102 13.65954,-19.74066 -1.5101,5.09841 -9.46894,5.82982 -14.592034,3.97266 -11.015061,-4.05869 -16.353378,-15.47961 -22.824355,-24.41349 -4.022451,-5.84314 -8.375238,-11.654 -14.180651,-15.84976 2.557326,-6.78176 -6.321521,1.49932 -7.948009,3.09884 -3.737846,3.39768 -7.304691,6.97573 -10.895741,10.52616 z" id="path3575" style="font-size:82.98279572px;font-style:normal;font-weight:normal;fill:#ffffff;fill-opacity:1;stroke:#000000;stroke-width:2.47758198;stroke-linecap:butt;stroke-linejoin:miter;stroke-opacity:1;font-family:Bitstream Vera Sans"/>
          <path d="m 457.375,792.4375 c -25.138,10.65478 -48.15219,7.22145 -73.5,7.15625 1.35683,17.13715 14.57032,44.52631 31.91673,46.30129 24.56496,1.16024 42.25967,-30.07134 41.58327,-53.45754 z" id="path3577" style="fill:#ffffff;fill-opacity:1;stroke:#000000;stroke-width:3.53733683;stroke-miterlimit:4;stroke-opacity:0.91470588;stroke-dasharray:none;stroke-dashoffset:0"/>
          <path d="m 529.46875,472.75 c 0.30298,9.0786 -0.70227,18.138 -2.8125,26.9375 21.06399,12.83812 35.18749,36.27912 35.1875,63.0625 -18.71225,59.23935 26.33051,20.84797 21.5276,-20.28125 -2e-5,-32.46863 -25.18046,-60.0134 -53.9026,-69.71875 z" id="path3579" style="fill:#ffffff;fill-opacity:1;stroke:#000000;stroke-width:3;stroke-miterlimit:4;stroke-opacity:0.91470588;stroke-dasharray:none;stroke-dashoffset:0"/>
          <path d="m 574.1875,559.5625 c -9.61511,0 -17.43751,9.36812 -17.4375,20.90625 0,4.7109 1.30399,9.06006 3.50158,12.55756 3.18485,5.06872 9.57722,6.34785 13.93592,27.66759 0.23249,-18.05209 11.17179,-22.88599 14.31387,-28.32891 1.9499,-3.37774 3.09238,-7.47788 3.09238,-11.89624 0,-11.53813 -7.79117,-20.90626 -17.40625,-20.90625 z" id="path3581" style="fill:#ffffff;fill-opacity:1;stroke:#000000;stroke-width:3;stroke-miterlimit:4;stroke-opacity:0.91470588;stroke-dashoffset:0"/>
          <path d="m 576.65625,513.875 c -6.57579,4.98939 -11.03125,14.5182 -11.03125,25.4375 0,7.96974 2.37647,15.1782 6.21875,20.4375 0.76588,-0.12362 1.55004,-0.1875 2.34375,-0.1875 2.89509,0 5.62977,0.87285 8.03125,2.375 1.37636,-6.14537 1.93952,-12.76133 1.15625,-19.46875 0,-10.14645 -2.46105,-19.80315 -6.71875,-28.59375 z" id="path3583" style="fill:#000000;fill-opacity:1;stroke:#000000;stroke-width:3;stroke-miterlimit:4;stroke-opacity:0.91470588;stroke-dasharray:none;stroke-dashoffset:0"/>
          <path d="m 378.40625,680.375 c 1.30519,27.32268 3.27251,55.32849 4.03125,76.96875 0.63591,-0.14965 1.2779,-0.28594 1.9375,-0.40625 0.0285,-0.0137 0.0651,-0.0175 0.0937,-0.0312 4.98881,-2.38522 11.95608,-4.50075 20.09375,-5.96875 5.01002,-7.45612 8.03124,-16.95349 8.03125,-27.3125 0,-23.29226 -15.17793,-42.27831 -34.1875,-43.25 z" id="path3585" style="fill:#000000;fill-opacity:1;stroke:#000000;stroke-width:4;stroke-miterlimit:4;stroke-opacity:0.91470588;stroke-dasharray:none;stroke-dashoffset:0"/>
          <path d="m 333.375,301.09375 c -17.49597,0.12383 -36.27357,2.6753 -53.4375,6.34375 6.68036,12.16535 23.72626,20.84376 43.71875,20.84375 21.21887,0 39.15972,-9.77856 44.875,-23.125 -1.21344,-0.32074 -2.42734,-0.64807 -3.625,-0.9375 -9.45559,-2.28503 -20.21964,-3.20506 -31.53125,-3.125 z m 155.9375,80.3125 c -2.0183,0.79829 -3.91735,1.86129 -5.65625,3.21875 -14.00793,10.93516 -12.47736,36.3406 3.40625,56.6875 11.79535,15.10983 28.19615,23.18919 41.59375,21.875 -0.67152,-4.96758 -1.7468,-9.91367 -3.25,-14.8125 -6.12742,-24.76178 -19.18961,-47.3207 -36.09375,-66.96875 z m -393.71875,76.125 c -11.158619,12.69852 -21.507754,27.02092 -33.5,43.6875 0.72657,0.52216 1.436934,1.07816 2.125,1.65625 0.591683,0.49711 1.152754,0.99765 1.71875,1.53125 0.08626,0.0808 0.164393,0.16846 0.25,0.25 0.321214,0.30768 0.65513,0.6193 0.96875,0.9375 0.307588,0.31055 0.606716,0.61887 0.90625,0.9375 0.473714,0.50623 0.948081,1.03567 1.40625,1.5625 0.125898,0.14439 0.250413,0.29189 0.375,0.4375 0.618371,0.72271 1.223218,1.47046 1.8125,2.21875 0.0039,0.005 0.02733,-0.005 0.03125,0 1.615027,0.31186 3.272111,0.46875 4.96875,0.46875 15.619024,0 28.28125,-13.79492 28.28125,-30.8125 0,-9.07435 -3.61457,-17.22796 -9.34375,-22.875 z m 152.625,34.125 c -9.10134,0.27892 -17.09793,3.7286 -22.03125,10.34375 -1.42987,1.91733 -2.52755,4.00867 -3.3125,6.21875 19.87948,20.02096 44.68623,37.70934 69.75,51.03125 1.63508,-1.27862 3.10898,-2.77113 4.375,-4.46875 10.52442,-14.11231 3.19636,-37.39647 -16.34375,-51.96875 -10.38069,-7.74152 -22.12265,-11.47236 -32.4375,-11.15625 z M 451,576.03125 c -16.08346,0 -29.15624,13.07279 -29.15625,29.15625 0,16.08346 13.07279,29.12499 29.15625,29.125 0.48168,0 0.96155,-0.008 1.4375,-0.0312 -0.62416,-17.77089 -1.25124,-35.54171 -1.875,-53.3125 3.32973,-0.95798 6.58736,-2.08254 9.78125,-3.375 -2.93753,-0.99853 -6.06977,-1.5625 -9.34375,-1.5625 z" id="path3587" style="fill:#000000;fill-opacity:1;stroke:#000000;stroke-width:4;stroke-miterlimit:4;stroke-opacity:0.91470588;stroke-dasharray:none;stroke-dashoffset:0"/>
          <path d="m 309.10243,409.45447 a 30.403517,24.702858 0 1 1 -60.80703,0 30.403517,24.702858 0 1 1 60.80703,0 z" transform="matrix(0.9815601,0.1911538,-0.1911538,0.9815601,72.006625,-71.060315)" id="path3589" style="fill:#000000;fill-opacity:1;stroke:#000000;stroke-width:3;stroke-miterlimit:4;stroke-opacity:0.91470588;stroke-dasharray:none;stroke-dashoffset:0"/>
          <path d="m 439.58421,392.9859 a 23.436045,27.236485 0 1 1 -46.87209,0 23.436045,27.236485 0 1 1 46.87209,0 z" transform="matrix(0.78017,-0.6255676,0.6255676,0.78017,-179.69364,340.38482)" id="path3591" style="fill:#000000;fill-opacity:1;stroke:#000000;stroke-width:3;stroke-miterlimit:4;stroke-opacity:0.91470588;stroke-dasharray:none;stroke-dashoffset:0"/>
          <path d="m 428.18288,512.06635 a 33.570549,22.169231 0 1 1 -67.14109,0 33.570549,22.169231 0 1 1 67.14109,0 z" transform="matrix(0.8543361,0.5197209,-0.5197209,0.8543361,317.27832,-135.56596)" id="path3593" style="fill:#000000;fill-opacity:1;stroke:#000000;stroke-width:3;stroke-miterlimit:4;stroke-opacity:0.91470588;stroke-dasharray:none;stroke-dashoffset:0"/>
        </g>
      </g>
    </g>
  </g>
</svg>
