<?xml version="1.0" encoding="UTF-8" standalone="no"?>
<svg
   xmlns:dc="http://purl.org/dc/elements/1.1/"
   xmlns:cc="http://creativecommons.org/ns#"
   xmlns:rdf="http://www.w3.org/1999/02/22-rdf-syntax-ns#"
   xmlns:svg="http://www.w3.org/2000/svg"
   xmlns="http://www.w3.org/2000/svg"
   id="svg2"
   preserveAspectRatio="xMidYMid meet"
   viewBox="0 0 554.000000 58.000000"
   height="58.000000pt"
   width="554.000000pt"
   version="1.0">
  <metadata
     id="metadata36">
    <rdf:RDF>
      <cc:Work
         rdf:about="">
        <dc:format>image/svg+xml</dc:format>
        <dc:type
           rdf:resource="http://purl.org/dc/dcmitype/StillImage" />
        <dc:title></dc:title>
      </cc:Work>
    </rdf:RDF>
  </metadata>
  <defs
     id="defs34" />
  <g
     style="stroke:#000000;stroke-opacity:1;stroke-width:8.8;stroke-miterlimit:4;stroke-dasharray:none"
     id="g4"
     stroke="none"
     transform="translate(0.000000,58.000000) scale(0.100000,-0.100000)">
    <path
       style="stroke:#000000;stroke-opacity:1;stroke-width:8.8;stroke-miterlimit:4;stroke-dasharray:none"
       id="path6"
       d="M105 495 c-9 -7 -15 -69 -19 -203 -7 -200 -2 -232 32 -232 34 0 42 21 42 111 0 56 4 90 12 95 6 4 39 7 72 6 83 -1 96 4 96 38 0 35 -13 40 -106 40 l-74 0 0 39 c0 38 0 38 46 45 25 3 66 1 91 -4 50 -12 73 -2 73 32 0 33 -60 50 -163 46 -49 -2 -96 -7 -102 -13z"
       fill="#2B37A6" />
    <path
       style="stroke:#000000;stroke-opacity:1;stroke-width:8.8;stroke-miterlimit:4;stroke-dasharray:none"
       id="path8"
       d="M607 462 c-14 -15 -48 -65 -77 -112 -28 -46 -57 -88 -65 -93 -8 -4 -15 -19 -15 -33 0 -14 -7 -39 -16 -55 -8 -17 -14 -42 -12 -57 2 -21 8 -27 28 -27 21 0 30 10 52 56 26 54 28 57 74 64 25 3 52 9 59 11 9 4 15 -8 20 -34 8 -47 39 -102 59 -102 7 0 19 7 26 16 11 12 10 24 -3 67 -13 42 -67 285 -67 302 0 2 -8 9 -19 14 -14 8 -23 5 -44 -17z m23 -153 c0 -14 -26 -28 -53 -29 -4 0 3 15 15 34 23 34 37 32 38 -5z"
       fill="#F9408A" />
    <path
       style="stroke:#000000;stroke-opacity:1;stroke-width:8.8;stroke-miterlimit:4;stroke-dasharray:none"
       id="path10"
       d="M822 488 c-37 -37 2 -58 111 -58 l85 0 -76 -103 c-124 -166 -134 -182 -130 -214 l3 -28 169 0 c149 0 170 2 180 17 20 33 -7 43 -136 48 l-120 5 56 80 c31 44 91 112 134 152 66 62 75 75 66 90 -10 16 -30 18 -170 21 -116 2 -163 -1 -172 -10z"
       fill="#A62B5C" />
    <path
       style="stroke:#000000;stroke-opacity:1;stroke-width:8.8;stroke-miterlimit:4;stroke-dasharray:none"
       id="path12"
       d="M1278 513 c-40 -3 -49 -8 -52 -26 -3 -12 -4 -102 -3 -199 2 -218 -2 -211 128 -217 119 -4 141 2 137 37 -3 27 -4 27 -98 32 l-95 5 -3 56 -3 57 91 7 c105 8 135 26 111 64 -9 14 -118 17 -168 5 -22 -6 -23 -3 -23 49 l0 55 48 7 c26 3 67 2 92 -4 51 -11 70 -2 70 34 0 40 -65 51 -232 38z"
       fill="#10A399" />
    <path
       style="stroke:#000000;stroke-opacity:1;stroke-width:8.8;stroke-miterlimit:4;stroke-dasharray:none"
       id="path14"
       d="M1579 507 c-11 -11 -14 -55 -13 -210 1 -108 5 -201 9 -206 9 -15 40 -14 53 2 7 8 13 67 14 137 l3 123 77 -95 c127 -156 183 -199 216 -166 16 16 15 320 -1 368 -10 30 -17 35 -42 35 -35 0 -34 9 -20 -195 l7 -115 -41 45 c-22 25 -66 80 -98 124 -32 43 -72 97 -88 120 -34 45 -55 54 -76 33z"
       fill="#027D12" />
    <path
       style="stroke:#000000;stroke-opacity:1;stroke-width:8.8;stroke-miterlimit:4;stroke-dasharray:none"
       id="path16"
       d="M3019 507 c-11 -11 -14 -55 -13 -210 1 -108 5 -201 9 -206 9 -15 40 -14 53 2 7 8 13 67 14 137 l3 123 77 -95 c127 -156 183 -199 216 -166 16 16 15 320 -1 368 -10 30 -17 35 -42 35 -35 0 -34 9 -20 -195 l7 -115 -41 45 c-22 25 -66 80 -98 124 -32 43 -72 97 -88 120 -34 45 -55 54 -76 33z"
       fill="#A62B5C" />
    <path
       style="stroke:#000000;stroke-opacity:1;stroke-width:8.8;stroke-miterlimit:4;stroke-dasharray:none"
       id="path18"
       d="M2032 498 c-9 -9 -12 -68 -12 -204 l0 -192 47 -16 c94 -32 197 -10 241 51 12 17 27 51 33 76 27 99 -36 190 -178 257 -88 42 -112 47 -131 28z m139 -118 c68 -35 99 -76 99 -131 0 -72 -80 -124 -154 -99 l-32 10 7 68 c5 37 8 93 8 125 1 31 3 57 6 57 3 0 33 -14 66 -30z"
       fill="#603FA6" />
    <path
       style="stroke:#000000;stroke-opacity:1;stroke-width:8.8;stroke-miterlimit:4;stroke-dasharray:none"
       id="path20"
       d="M2597 462 c-14 -15 -49 -65 -78 -112 -28 -47 -58 -89 -65 -93 -8 -4 -14 -19 -14 -31 0 -13 -9 -43 -19 -67 -23 -50 -14 -82 22 -77 16 2 30 20 49 59 26 54 28 57 74 64 25 3 52 9 59 11 9 4 15 -8 20 -34 8 -47 39 -102 59 -102 37 0 38 26 7 152 -16 68 -33 141 -36 163 -10 63 -15 74 -34 85 -14 7 -24 3 -44 -18z m22 -167 c-2 -2 -17 -7 -32 -11 l-29 -7 24 36 23 36 9 -25 c4 -14 6 -27 5 -29z"
       fill="#A97F00" />
    <path
       style="stroke:#000000;stroke-opacity:1;stroke-width:8.8;stroke-miterlimit:4;stroke-dasharray:none"
       id="path22"
       d="M3633 457 c-16 -19 -52 -69 -78 -113 -27 -43 -55 -83 -62 -87 -7 -4 -13 -16 -13 -27 0 -10 -9 -39 -20 -65 -15 -36 -17 -51 -9 -66 19 -36 51 -20 79 38 28 58 29 60 98 69 l48 6 13 -50 c15 -60 44 -91 69 -75 23 14 20 38 -22 221 -32 142 -47 182 -66 182 -4 0 -21 -15 -37 -33z m26 -153 c1 -7 -10 -14 -24 -16 -30 -6 -30 -5 -8 33 15 26 19 27 25 12 3 -10 7 -23 7 -29z"
       fill="#A62B5C" />
    <path
       style="stroke:#000000;stroke-opacity:1;stroke-width:8.8;stroke-miterlimit:4;stroke-dasharray:none"
       id="path24"
       d="M4052 488 c-5 -7 -13 -92 -17 -189 -8 -187 -3 -219 35 -219 26 0 43 34 38 81 -2 21 0 39 5 39 21 0 77 -31 125 -69 56 -44 77 -48 96 -18 9 16 3 26 -41 66 l-53 47 35 31 c37 33 51 69 41 108 -9 37 -61 91 -110 114 -48 24 -138 28 -154 9z m140 -85 c15 -7 36 -25 45 -40 17 -25 16 -26 -11 -49 -15 -13 -37 -24 -49 -24 -12 0 -32 -3 -44 -6 -22 -6 -23 -4 -23 70 l0 76 28 -6 c15 -4 39 -13 54 -21z"
       fill="#DE6A04" />
    <path
       style="stroke:#000000;stroke-opacity:1;stroke-width:8.8;stroke-miterlimit:4;stroke-dasharray:none"
       id="path26"
       d="M4442 513 c-24 -2 -45 -10 -47 -16 -9 -27 -12 -319 -5 -354 15 -64 37 -74 159 -71 l106 3 3 33 c2 21 -1 32 -10 33 -7 1 -51 2 -98 3 l-85 1 -3 56 -3 56 93 7 c96 7 118 16 118 47 0 31 -32 39 -119 31 l-82 -8 3 50 3 51 40 5 c22 3 62 2 88 -2 53 -8 73 -3 81 18 8 22 -4 45 -31 55 -24 9 -122 10 -211 2z"
       fill="#091E85" />
    <path
       style="stroke:#000000;stroke-opacity:1;stroke-width:8.8;stroke-miterlimit:4;stroke-dasharray:none"
       id="path28"
       d="M4762 498 c-9 -9 -12 -68 -12 -204 l0 -192 47 -16 c94 -32 197 -10 241 51 12 17 27 51 33 76 27 99 -36 190 -178 257 -88 42 -112 47 -131 28z m139 -118 c68 -35 99 -76 99 -131 0 -72 -80 -124 -154 -99 l-32 10 7 68 c5 37 8 93 8 125 1 31 3 57 6 57 3 0 33 -14 66 -30z"
       fill="#DB0259" />
    <path
       style="stroke:#000000;stroke-opacity:1;stroke-width:8.8;stroke-miterlimit:4;stroke-dasharray:none"
       id="path30"
       d="M5210 513 c-25 -3 -49 -8 -54 -13 -14 -14 -19 -349 -5 -381 15 -37 54 -49 154 -49 87 0 110 11 103 47 -3 15 -17 19 -98 23 l-95 5 -3 57 -3 56 78 7 c119 9 125 11 121 43 l-3 27 -92 -1 -93 -2 0 54 0 53 43 6 c23 3 69 4 102 3 58 -3 60 -2 63 24 3 23 -2 28 -35 37 -37 11 -91 12 -183 4z"
       fill="#13BFBF" />
  </g>
</svg>
